<svg width="224" height="60" viewBox="0 0 224 60" fill="none" xmlns="http://www.w3.org/2000/svg">
<path d="M0.487305 30C0.487305 13.4315 13.9188 0 30.4873 0H193.068C209.636 0 223.068 13.4315 223.068 30C223.068 46.5685 209.636 60 193.068 60H30.4873C13.9188 60 0.487305 46.5685 0.487305 30Z" fill="#A896FF"/>
<path d="M93.0088 37.8432C91.5073 37.8432 90.1774 37.5215 89.0191 36.8779C87.8751 36.2201 86.9814 35.2906 86.3379 34.0894C85.7087 32.8882 85.3941 31.4797 85.3941 29.8638C85.3941 28.2479 85.7015 26.8393 86.3164 25.6381C86.9456 24.4226 87.8322 23.4931 88.9762 22.8496C90.1202 22.2061 91.4644 21.8844 93.0088 21.8844C94.2386 21.8844 95.3612 22.106 96.3765 22.5493C97.4061 22.9926 98.2569 23.6504 98.929 24.5227C99.6011 25.395 100.037 26.4532 100.237 27.6973H96.5695C96.3407 26.825 95.9117 26.1672 95.2825 25.7239C94.6533 25.2663 93.8954 25.0375 93.0088 25.0375C92.1937 25.0375 91.5002 25.2306 90.9282 25.6167C90.3562 26.0028 89.92 26.5605 89.6197 27.2898C89.3194 28.0048 89.1693 28.8628 89.1693 29.8638C89.1693 30.8648 89.3194 31.7299 89.6197 32.4592C89.92 33.1742 90.3562 33.7248 90.9282 34.1109C91.5002 34.497 92.1937 34.69 93.0088 34.69C93.6237 34.69 94.1814 34.5756 94.6819 34.3468C95.1967 34.1037 95.6257 33.7534 95.9689 33.2958C96.3121 32.8382 96.5409 32.2805 96.6553 31.6227H100.28C100.123 32.9526 99.7084 34.0823 99.0363 35.0118C98.3785 35.9413 97.5276 36.6491 96.4837 37.1353C95.4398 37.6073 94.2815 37.8432 93.0088 37.8432ZM115.746 37.5H111.906L111.006 34.8402H104.656L103.777 37.5H100.066L105.686 22.2276H109.997L115.746 37.5ZM105.665 31.8157H109.976L109.097 29.1988C108.825 28.4266 108.396 27.1396 107.81 25.3378C107.238 27.1253 106.816 28.4123 106.544 29.1988L105.665 31.8157ZM120.371 22.2276V34.261H127.364V37.5H116.746V22.2276H120.371ZM132.416 22.2276V34.261H139.409V37.5H128.791V22.2276H132.416Z" fill="#171C24"/>
</svg>
